<svg width="24" height="24" viewBox="0 0 24 24" fill="none" xmlns="http://www.w3.org/2000/svg">
<path fill-rule="evenodd" clip-rule="evenodd" d="M9.11905 18.1362C9.11778 18.3646 9.12965 18.593 9.15469 18.8205L9.1584 18.8541C9.20572 19.284 9.36391 19.6937 9.61709 20.0421C9.88982 20.4174 10.2749 20.6938 10.7152 20.8301L10.9284 20.8962C11.2273 20.9887 11.5414 21.0198 11.8524 20.9878L11.8962 20.9832C12.432 20.9279 12.9318 20.6846 13.3089 20.2953L13.3842 20.2177C13.4821 20.1166 13.5651 20.0016 13.6304 19.8764L14.4728 18.2616L15.5313 16.0417L17.17 16.0417C19.8376 16.0417 22 13.8536 22 11.1544L22 7.88728C22 5.18811 19.8375 3 17.17 3L7.95452 3C5.21398 3 2.88841 5.03454 2.49248 7.77852L2.04781 10.8603C1.65364 13.592 3.74677 16.0417 6.47513 16.0417L9.35711 16.0417C9.3613 16.0417 9.36452 16.0454 9.36394 16.0496L9.23063 17.0129L9.20603 17.1551C9.15068 17.475 9.12168 17.7986 9.11914 18.1226C9.11911 18.1271 9.11908 18.1317 9.11905 18.1362ZM12.6247 17.3173L14.2317 13.9471L17.17 13.9471C18.6943 13.9471 19.93 12.6968 19.93 11.1544L19.93 7.88728C19.93 6.3449 18.6943 5.09455 17.17 5.09455L7.95452 5.09455C6.24168 5.09455 4.7882 6.36614 4.54075 8.08112L4.09608 11.1629C3.88427 12.6308 5.00902 13.9471 6.47513 13.9471L9.35711 13.9471C10.6187 13.9471 11.5889 15.0759 11.4139 16.3401L11.2757 17.3388L11.245 17.5163C11.1838 17.8703 11.1726 18.2314 11.212 18.5886L11.2157 18.6222C11.2228 18.6871 11.2466 18.7488 11.2848 18.8014C11.2938 18.8137 11.3064 18.8228 11.3209 18.8273L11.5341 18.8933C11.5691 18.9041 11.6059 18.9078 11.6423 18.904L11.6861 18.8995C11.741 18.8938 11.7921 18.8689 11.8307 18.8291L11.8423 18.8172L12.6247 17.3173Z" fill="#CE4E13"/>
<path fill-rule="evenodd" clip-rule="evenodd" d="M16.1351 5.09455L16.1351 13.9471L14.2317 13.9471L14.2317 5.09455L16.1351 5.09455Z" fill="#CE4E13"/>
</svg>
