<svg width="24" height="24" viewBox="0 0 24 24" fill="none" xmlns="http://www.w3.org/2000/svg">
<path fill-rule="evenodd" clip-rule="evenodd" d="M14.8809 5.86376C14.8822 5.63545 14.8703 5.40698 14.8453 5.17952L14.8416 5.14587C14.7943 4.71604 14.6361 4.30635 14.3829 3.9579C14.1102 3.58256 13.7251 3.30621 13.2848 3.16988L13.0716 3.10385C12.7727 3.01129 12.4586 2.98015 12.1476 3.01225L12.1038 3.01676C11.568 3.07208 11.0682 3.31545 10.6911 3.70465L10.6158 3.78232C10.5179 3.88344 10.4349 3.99842 10.3696 4.12365L9.52721 5.73845L8.46869 7.95831H6.82996C4.16245 7.95831 2 10.1464 2 12.8456V16.1127C2 18.8119 4.16245 21 6.82996 21H16.0455C18.786 21 21.1116 18.9655 21.5075 16.2215L21.9522 13.1397C22.3464 10.408 20.2532 7.95831 17.5249 7.95831H14.6429C14.6387 7.95831 14.6355 7.95456 14.6361 7.95036L14.7694 6.98712L14.794 6.8449C14.8493 6.52499 14.8783 6.20138 14.8809 5.87741C14.8809 5.87286 14.8809 5.86831 14.8809 5.86376ZM11.3753 6.68274L9.76827 10.0529H6.82996C5.30567 10.0529 4.06998 11.3032 4.06998 12.8456V16.1127C4.06998 17.6551 5.30567 18.9055 6.82996 18.9055H16.0455C17.7583 18.9055 19.2118 17.6339 19.4593 15.9189L19.9039 12.8371C20.1157 11.3692 18.991 10.0529 17.5249 10.0529H14.6429C13.3813 10.0529 12.4111 8.92408 12.5861 7.65986L12.7243 6.66119L12.755 6.48373C12.8162 6.12969 12.8274 5.76863 12.788 5.41142L12.7843 5.37776C12.7772 5.31295 12.7534 5.25117 12.7152 5.19863C12.7062 5.1863 12.6936 5.17722 12.6791 5.17274L12.4659 5.10671C12.4309 5.09587 12.3941 5.09222 12.3577 5.09598L12.3139 5.1005C12.259 5.10616 12.2079 5.13108 12.1693 5.17092L12.1577 5.18284L11.3753 6.68274Z" fill="#1BCE13"/>
<path fill-rule="evenodd" clip-rule="evenodd" d="M7.86494 18.9055V10.0529H9.76827V18.9055H7.86494Z" fill="#1BCE13"/>
</svg>
