<svg width="24" height="24" viewBox="0 0 24 24" fill="none" xmlns="http://www.w3.org/2000/svg">
<path fill-rule="evenodd" clip-rule="evenodd" d="M16.8867 5.97989H6.12288C4.98437 5.97989 4.06144 6.86631 4.06144 7.95978V14.1198C4.06144 15.0852 4.78642 15.9099 5.77739 16.0717L17.5308 17.9907C18.8871 18.2122 20.0844 17.1198 19.9236 15.8075L18.934 7.72845C18.8119 6.73135 17.932 5.97989 16.8867 5.97989ZM6.12288 4C3.84587 4 2 5.77285 2 7.95978V14.1198C2 16.0507 3.44997 17.7 5.4319 18.0236L17.1853 19.9426C19.8979 20.3855 22.2924 18.2008 21.9709 15.5762L20.9813 7.49711C20.737 5.50292 18.9773 4 16.8867 4H6.12288Z" fill="#868493"/>
<path fill-rule="evenodd" clip-rule="evenodd" d="M6.12288 8.94972C6.12288 8.40299 6.58434 7.95978 7.15359 7.95978H15.3993C15.9686 7.95978 16.4301 8.40299 16.4301 8.94972C16.4301 9.49645 15.9686 9.93967 15.3993 9.93967H7.15359C6.58434 9.93967 6.12288 9.49645 6.12288 8.94972Z" fill="#868493"/>
<path fill-rule="evenodd" clip-rule="evenodd" d="M9.21503 12.9095C9.21503 12.3628 9.6765 11.9196 10.2458 11.9196H15.3993C15.9686 11.9196 16.4301 12.3628 16.4301 12.9095C16.4301 13.4562 15.9686 13.8994 15.3993 13.8994H10.2458C9.6765 13.8994 9.21503 13.4562 9.21503 12.9095Z" fill="#868493"/>
<path d="M8.18431 12.9095C8.18431 13.4562 7.72285 13.8994 7.15359 13.8994C6.58434 13.8994 6.12288 13.4562 6.12288 12.9095C6.12288 12.3628 6.58434 11.9196 7.15359 11.9196C7.72285 11.9196 8.18431 12.3628 8.18431 12.9095Z" fill="#868493"/>
</svg>
