<svg width="24" height="24" viewBox="0 0 24 24" fill="none" xmlns="http://www.w3.org/2000/svg">
<path fill-rule="evenodd" clip-rule="evenodd" d="M17.2496 16.2178C18.7336 14.4908 19.6704 12.3297 19.9208 10.6831C20.2857 8.28289 19.3459 6.44064 18.1762 5.58245C17.5976 5.15788 16.9678 4.96841 16.3499 5.00432C15.7408 5.03973 14.9962 5.30304 14.1996 6.0389C12.9657 7.17869 11.0343 7.17869 9.80039 6.03889C9.00379 5.30304 8.25925 5.03973 7.65007 5.00432C7.03218 4.96841 6.40244 5.15788 5.82378 5.58245C4.65413 6.44064 3.71433 8.28289 4.07924 10.6831C4.3236 12.2905 5.25889 14.4534 6.74871 16.1936C8.23203 17.9262 10.0458 19 12 19C13.962 19 15.773 17.9362 17.2496 16.2178ZM12 21C17.4665 21 21.278 15.0622 21.898 10.9838C22.8269 4.87381 17.2178 0.528163 12.8425 4.56977C12.3749 5.00173 11.6251 5.00173 11.1575 4.56977C6.78222 0.528163 1.17306 4.87381 2.10196 10.9838C2.71107 14.9903 6.53346 21 12 21Z" fill="#868493"/>
</svg>
