<svg width="24" height="24" viewBox="0 0 24 24" fill="none" xmlns="http://www.w3.org/2000/svg">
<path fill-rule="evenodd" clip-rule="evenodd" d="M13 4.32651H7C6.44771 4.32651 6 4.77423 6 5.32651V19.3265C6 19.8788 6.44772 20.3265 7 20.3265H13C13.5523 20.3265 14 19.8788 14 19.3265V5.32651C14 4.77423 13.5523 4.32651 13 4.32651ZM7 2.32651C5.34315 2.32651 4 3.66966 4 5.32651V19.3265C4 20.9834 5.34315 22.3265 7 22.3265H13C14.6569 22.3265 16 20.9834 16 19.3265V5.32651C16 3.66966 14.6569 2.32651 13 2.32651H7Z" fill="#868493"/>
<path fill-rule="evenodd" clip-rule="evenodd" d="M11.5565 3.03482L17.3521 4.58773C17.8855 4.73068 18.2021 5.27901 18.0592 5.81248L14.4357 19.3354C14.3675 19.5899 14.2071 19.7951 14 19.9245V20.3265H6.60386C6.69914 20.3628 6.79718 20.3945 6.89778 20.4215L12.6933 21.9744C14.2937 22.4032 15.9387 21.4535 16.3676 19.8531L19.991 6.33012C20.4199 4.72972 19.4701 3.08471 17.8697 2.65588L12.0742 1.10297C10.4738 0.674142 8.82875 1.62389 8.39993 3.22429L8.10459 4.32651H10.1751L10.3318 3.74193C10.4747 3.20846 11.0231 2.89188 11.5565 3.03482ZM5.99999 12.181L4.77646 16.7473C4.43575 18.0188 4.96529 19.3185 5.99999 20.014V12.181Z" fill="#868493"/>
</svg>
